<svg xmlns="http://www.w3.org/2000/svg" version="1.1" width="420.7mm" height="374.7mm" viewBox = " 0 0 1490.670517 1327.678257" >
<!-- Front--> 
<g transform="translate(22.500018499999996, 22.500018499999996) " > 
<polygon style="stroke:#000000; fill:none; stroke-width:0.90000074" points="0, 0 104.52764499999999, 0 104.52764499999999, 21.25986 209.05528999999999, 21.25986 209.05528999999999, 0 272.83486999999997, 0 272.83486999999997, 21.25986 377.362515, 21.25986 377.362515, 0 481.89016, 0 481.89016, 80.6103025 460.6303, 80.6103025 460.6303, 161.220605 481.89016, 161.220605 481.89016, 225.000185 460.6303, 225.000185 460.6303, 288.779765 481.89016, 288.779765 481.89016, 352.559345 460.6303, 352.559345 460.6303, 416.338925 481.89016, 416.338925 481.89016, 480.118505 460.6303, 480.118505 460.6303, 560.7288075 481.89016, 560.7288075 481.89016, 641.33911 377.362515, 641.33911 377.362515, 620.07925 272.83486999999997, 620.07925 272.83486999999997, 641.33911 209.05528999999999, 641.33911 209.05528999999999, 620.07925 104.52764499999999, 620.07925 104.52764499999999, 641.33911 0, 641.33911 0, 560.7288075 21.25986, 560.7288075 21.25986, 480.118505 0, 480.118505 0, 416.338925 21.25986, 416.338925 21.25986, 352.559345 0, 352.559345 0, 288.779765 21.25986, 288.779765 21.25986, 225.000185 0, 225.000185 0, 161.220605 21.25986, 161.220605 21.25986, 80.6103025 0, 80.6103025 "/> 
</g>
<!-- Back--> 
<g transform="translate(504.3901785, 22.500018499999996) " > 
<polygon style="stroke:#000000; fill:none; stroke-width:0.90000074" points="0, 0 104.52764499999999, 0 104.52764499999999, 21.25986 209.05528999999999, 21.25986 209.05528999999999, 0 272.83486999999997, 0 272.83486999999997, 21.25986 377.362515, 21.25986 377.362515, 0 481.89016, 0 481.89016, 80.6103025 460.6303, 80.6103025 460.6303, 161.220605 481.89016, 161.220605 481.89016, 225.000185 460.6303, 225.000185 460.6303, 288.779765 481.89016, 288.779765 481.89016, 352.559345 460.6303, 352.559345 460.6303, 416.338925 481.89016, 416.338925 481.89016, 480.118505 460.6303, 480.118505 460.6303, 560.7288075 481.89016, 560.7288075 481.89016, 641.33911 377.362515, 641.33911 377.362515, 620.07925 272.83486999999997, 620.07925 272.83486999999997, 641.33911 209.05528999999999, 641.33911 209.05528999999999, 620.07925 104.52764499999999, 620.07925 104.52764499999999, 641.33911 0, 641.33911 0, 560.7288075 21.25986, 560.7288075 21.25986, 480.118505 0, 480.118505 0, 416.338925 21.25986, 416.338925 21.25986, 352.559345 0, 352.559345 0, 288.779765 21.25986, 288.779765 21.25986, 225.000185 0, 225.000185 0, 161.220605 21.25986, 161.220605 21.25986, 80.6103025 0, 80.6103025 "/> 
</g>
<!-- Left--> 
<g transform="translate(986.2803385000001, 22.500018499999996) " > 
<polygon style="stroke:#000000; fill:none; stroke-width:0.90000074" points="21.25986, 0 104.52764499999999, 0 104.52764499999999, 21.25986 209.05528999999999, 21.25986 209.05528999999999, 0 272.83486999999997, 0 272.83486999999997, 21.25986 377.362515, 21.25986 377.362515, 0 460.6303, 0 460.6303, 80.6103025 481.89016, 80.6103025 481.89016, 161.220605 460.6303, 161.220605 460.6303, 225.000185 481.89016, 225.000185 481.89016, 288.779765 460.6303, 288.779765 460.6303, 352.559345 481.89016, 352.559345 481.89016, 416.338925 460.6303, 416.338925 460.6303, 480.118505 481.89016, 480.118505 481.89016, 560.7288075 460.6303, 560.7288075 460.6303, 641.33911 377.362515, 641.33911 377.362515, 620.07925 272.83486999999997, 620.07925 272.83486999999997, 641.33911 209.05528999999999, 641.33911 209.05528999999999, 620.07925 104.52764499999999, 620.07925 104.52764499999999, 641.33911 21.25986, 641.33911 21.25986, 560.7288075 0, 560.7288075 0, 480.118505 21.25986, 480.118505 21.25986, 416.338925 0, 416.338925 0, 352.559345 21.25986, 352.559345 21.25986, 288.779765 0, 288.779765 0, 225.000185 21.25986, 225.000185 21.25986, 161.220605 0, 161.220605 0, 80.6103025 21.25986, 80.6103025 "/> 
</g>
<!-- Right--> 
<g transform="translate(986.2803385000001, 663.8391285) " > 
<polygon style="stroke:#000000; fill:none; stroke-width:0.90000074" points="21.25986, 0 104.52764499999999, 0 104.52764499999999, 21.25986 209.05528999999999, 21.25986 209.05528999999999, 0 272.83486999999997, 0 272.83486999999997, 21.25986 377.362515, 21.25986 377.362515, 0 460.6303, 0 460.6303, 80.6103025 481.89016, 80.6103025 481.89016, 161.220605 460.6303, 161.220605 460.6303, 225.000185 481.89016, 225.000185 481.89016, 288.779765 460.6303, 288.779765 460.6303, 352.559345 481.89016, 352.559345 481.89016, 416.338925 460.6303, 416.338925 460.6303, 480.118505 481.89016, 480.118505 481.89016, 560.7288075 460.6303, 560.7288075 460.6303, 641.33911 377.362515, 641.33911 377.362515, 620.07925 272.83486999999997, 620.07925 272.83486999999997, 641.33911 209.05528999999999, 641.33911 209.05528999999999, 620.07925 104.52764499999999, 620.07925 104.52764499999999, 641.33911 21.25986, 641.33911 21.25986, 560.7288075 0, 560.7288075 0, 480.118505 21.25986, 480.118505 21.25986, 416.338925 0, 416.338925 0, 352.559345 21.25986, 352.559345 21.25986, 288.779765 0, 288.779765 0, 225.000185 21.25986, 225.000185 21.25986, 161.220605 0, 161.220605 0, 80.6103025 21.25986, 80.6103025 "/> 
</g>
<!-- Top--> 
<g transform="translate(22.500018499999996, 663.8391285) " > 
<polygon style="stroke:#000000; fill:none; stroke-width:0.90000074" points="21.25986, 21.25986 104.52764499999999, 21.25986 104.52764499999999, 0 209.05528999999999, 0 209.05528999999999, 21.25986 272.83486999999997, 21.25986 272.83486999999997, 0 377.362515, 0 377.362515, 21.25986 460.6303, 21.25986 460.6303, 104.52764499999999 481.89016, 104.52764499999999 481.89016, 209.05528999999999 460.6303, 209.05528999999999 460.6303, 272.83486999999997 481.89016, 272.83486999999997 481.89016, 377.362515 460.6303, 377.362515 460.6303, 460.6303 377.362515, 460.6303 377.362515, 481.89016 272.83486999999997, 481.89016 272.83486999999997, 460.6303 209.05528999999999, 460.6303 209.05528999999999, 481.89016 104.52764499999999, 481.89016 104.52764499999999, 460.6303 21.25986, 460.6303 21.25986, 377.362515 0, 377.362515 0, 272.83486999999997 21.25986, 272.83486999999997 21.25986, 209.05528999999999 0, 209.05528999999999 0, 104.52764499999999 21.25986, 104.52764499999999 "/> 
</g>
<!-- Bottom--> 
<g transform="translate(504.3901785, 663.8391285) " > 
<polygon style="stroke:#000000; fill:none; stroke-width:0.90000074" points="21.25986, 21.25986 104.52764499999999, 21.25986 104.52764499999999, 0 209.05528999999999, 0 209.05528999999999, 21.25986 272.83486999999997, 21.25986 272.83486999999997, 0 377.362515, 0 377.362515, 21.25986 460.6303, 21.25986 460.6303, 104.52764499999999 481.89016, 104.52764499999999 481.89016, 209.05528999999999 460.6303, 209.05528999999999 460.6303, 272.83486999999997 481.89016, 272.83486999999997 481.89016, 377.362515 460.6303, 377.362515 460.6303, 460.6303 377.362515, 460.6303 377.362515, 481.89016 272.83486999999997, 481.89016 272.83486999999997, 460.6303 209.05528999999999, 460.6303 209.05528999999999, 481.89016 104.52764499999999, 481.89016 104.52764499999999, 460.6303 21.25986, 460.6303 21.25986, 377.362515 0, 377.362515 0, 272.83486999999997 21.25986, 272.83486999999997 21.25986, 209.05528999999999 0, 209.05528999999999 0, 104.52764499999999 21.25986, 104.52764499999999 "/> 
</g></svg>